<?xml version="1.0" encoding="UTF-8" standalone="no"?>
<!-- Generator: Adobe Illustrator 15.1.0, SVG Export Plug-In . SVG Version: 6.00 Build 0)  -->

<svg
        xmlns:dc="http://purl.org/dc/elements/1.1/"
        xmlns:cc="http://creativecommons.org/ns#"
        xmlns:rdf="http://www.w3.org/1999/02/22-rdf-syntax-ns#"
        xmlns:sodipodi="http://sodipodi.sourceforge.net/DTD/sodipodi-0.dtd"
        xmlns:inkscape="http://www.inkscape.org/namespaces/inkscape"
        xmlns="http://www.w3.org/2000/svg"
        version="1.1"
        id="Calque_1"
        x="0px"
        y="0px"
        width="85.635px"
        height="60px"
        viewBox="0 0 85.635 60"
        enable-background="new 0 0 85.635 60"
        xml:space="preserve"
        inkscape:version="0.48.4 r9939"
        sodipodi:docname="palme.svgz"><metadata
   id="metadata33"><rdf:RDF><cc:Work
       rdf:about=""><dc:format>image/svg+xml</dc:format><dc:type
        rdf:resource="http://purl.org/dc/dcmitype/StillImage"/><dc:title></dc:title></cc:Work></rdf:RDF></metadata>
    <defs
            id="defs31"/>
    <sodipodi:namedview
            pagecolor="#ffffff"
            bordercolor="#666666"
            borderopacity="1"
            objecttolerance="10"
            gridtolerance="10"
            guidetolerance="10"
            inkscape:pageopacity="0"
            inkscape:pageshadow="2"
            inkscape:window-width="640"
            inkscape:window-height="480"
            id="namedview29"
            showgrid="false"
            inkscape:zoom="3.9333333"
            inkscape:cx="42.817501"
            inkscape:cy="30"
            inkscape:window-x="0"
            inkscape:window-y="0"
            inkscape:window-maximized="0"
            inkscape:current-layer="Calque_1"/>
    <g
            id="g21">
	<g
            id="g23">
		<path
                d="M42.82,6.643C19.076,6.643,0,17.206,0,30.002C0,42.799,18.884,53.357,42.82,53.357c23.793,0,42.814-10.559,42.814-23.355    C85.635,17.206,66.52,6.643,42.82,6.643z M42.775,52.143c-21.844,0-40.537-10.111-40.537-22.152    c0-12.039,19.121-22.374,40.537-22.374c21.793,0,40.512,10.334,40.512,22.374C83.287,42.031,64.473,52.143,42.775,52.143z"
                id="path25" fill="#c8a461"/>
        <path
                d="M75.104,27.094c-1.318,0.269-2.541,0.689-3.795,1.063c-0.809,0.242-1.629,0.464-2.496,0.612l-0.355-0.006l0.154-0.233    c0.121-0.126,0.244-0.251,0.369-0.373c1.254-1.229,2.674-2.29,3.984-3.481c0.41-0.48,1.313-0.848,1.021-1.721    c-0.268-0.139-0.99,0.152-1.336,0.306c-2.549,1.316-4.895,2.795-7.051,4.851c-0.063,0.061-0.125,0.121-0.188,0.181    c-1.223,0.925-1.447,3.063-3.279,2.94c-1.162-0.107-1.328-0.096-1.775-0.254c1.867-1.441,5.461-6.209,5.783-7.348    c0,0,0.322-1.031-0.123-0.996c-1.713,0.623-3.33,2.073-4.664,3.246c0.125-0.578,1.063-1.683,0.605-2.35    c-2.965,0.625-7.145,4.592-7.166,4.605c-0.795,0.527-1.088,2.221-2.324,1.969c-0.773-0.105-1.705-0.115-2.16-0.377    c0.795-0.474,1.557-1.004,2.295-1.571c1.711-1.315,3.301-2.826,4.922-4.28c0.092-0.213,0.627-0.425,0.322-0.746    c-0.516-0.414-1.123,0.197-1.684,0.296c-2.566,1.125-4.301,2.64-5.996,4.73c-0.316,0.392-0.789,0.894-1.072,1.345    c-1.209-0.142-1.855-0.078-2.447-0.462c0.361-0.298,0.729-0.591,1.096-0.883c1.977-1.565,3.99-3.108,5.498-5.429    c-0.152-0.787-0.945-0.156-1.326-0.006c-2.695,1.331-4.91,2.973-6.609,5.572c-0.104,0.16-0.205,0.324-0.303,0.496    c-1.188-0.032-2.213-0.265-3.238-0.498c-0.021-0.006-0.043-0.011-0.064-0.016l0.008-0.109c2.586-1.321,4.887-3.59,6.668-6.271    c0,0,1.48-2.594-1.764-0.45c-2.422,1.557-4.627,3.612-6.172,6.534c0,0-1.629,0.062-1.629-0.116    c1.568-1.926,3.389-4.408,4.309-6.943c0.088-0.396,0.328-1.224-0.252-1.312c-2.182,0.915-3.621,3.478-4.789,5.88    c-0.355,0.707-0.551,1.597-0.869,2.269c-1.457-0.071-2.465,0.056-3.865-0.361c1.756-1.54,3.672-2.81,5.27-4.659    c0.271-0.504,2.068-1.735,2.023-3.323c-0.561-0.343-1.123,0.062-1.465,0.313l-4.924,3.924l-0.258,0.015    c0.785-1.405,2.498-3.46,3.201-4.91c0.238-0.487,0.529-0.93,0.508-1.521l-0.434-0.142c-3.561,1.531-6.629,5.021-7.833,9.52    c-0.294,0.416-0.438,1.215-1.043,0.977c-0.077-1.222-0.456-2.36-0.875-3.465C25.99,20.934,23.8,18.605,21,16.924    c-0.456-0.262-0.72,0.231-0.569,0.612c0.393,2.245,1.78,3.655,2.736,5.36c1.136,1.758,2.679,3.347,3.976,4.934    c-0.442,0.15-10.567,2.562-12.368,4.02c-0.944,0.521-2.457,1.729-2.434,4.377c0.079,0.781,0.625,1.549,1.316,1.779    c0.655,0.095,1.117,0.152,1.548-0.143c1.866-2.378,4.029-4.553,6.44-6c1.654-0.867,2.869-1.715,4.77-1.954    c0.782,0.731,1.29,1.692,2.36,2.577c2.106,1.918,3.954,3.219,6.86,3.695l0.289-0.097l-0.105-0.267    c-1.537-2.234-3.885-3.645-6.289-4.813c-0.41-0.312-1.407-0.838-1.462-1.469c1.479-0.496,3.452-0.64,5.229-0.213    c2.127,3.691,4.471,7.744,7.877,10.067c0.254,0.06,0.432-0.294,0.305-0.525c-2.363-5.753-3.873-6.271-6.293-8.913    c-0.131-0.195-0.313-0.654,0.033-0.807l2.262,0.035c0.729,0.1,1.725-0.106,1.902,0.213c0.109,3.805,2.559,6.712,4.035,9.605    c0,0,0.477,0.273,0.451-0.224l0.014-0.032c-0.604-6.698-3.113-8.24-3.492-9.379c0.387-0.026,0.811-0.002,1.127,0.172    c1.592,3.24,3.754,5.688,6.602,7.522c0.061,0.04,0.416,0.083,0.186-0.433c-0.828-2.783-3.387-4.209-5.043-6.307l-0.291-0.541    l0.336-0.045c0.711,0.141,1.67,0.302,2.193,0.643c0.945,1.814,2.223,3.215,3.584,4.512c1.127,1.02,2.09,2.21,3.793,2.543    l0.18-0.025l0.053-0.147l-0.053-0.216c-1.053-2.756-3.893-3.914-5.896-5.857c-0.137-0.123-0.387-0.624-0.012-0.702l3.229,0.469    c4.857,6.484,6.734,6.227,6.734,6.227s1.459,0.339,0.791-0.729c-1.584-1.646-2.963-2.4-4.857-3.902    c-0.34-0.324-1.191-0.897-1.102-1.479c0.693,0.105,0.809,0.098,2.223,0.258c0.445,0.063,1.047,0.141,1.389,0.293    c2.535,1.132,2.756,4.68,8.912,5.426c0.221,0.02,0.268-0.275,0.115-0.468c-1.76-1.37-6.344-4.444-6.625-4.798    c0.586,0.053,3.053,0.406,3.441,0.587c3.096,1.672,4.99,2.918,9.42,2.331c0.381-0.557-0.236-0.781-0.76-0.987l-2.496-0.97    c-0.322-0.103-1.707-0.374-2.207-0.534c2.652-0.836,6.15-1.802,8.484-3.218c0.369-0.291,0.807-0.512,1.168-0.831    c0.246-0.216,0.453-0.48,0.582-0.841C75.715,26.924,75.104,27.094,75.104,27.094z M30.531,27.557    c-0.279-0.172-0.057-0.513,0.029-0.652c0.082-0.104,1.035-1.814,1.875-1.374C32.584,25.953,31.127,27.652,30.531,27.557z     M59.74,28.162c-0.467,0.767-0.133,1.861-0.744,2.576l-4.135-0.533c2.4-0.854,4.352-2.495,5.506-3.162L59.74,28.162z     M64.201,31.35c-0.033-0.445,0.48-0.842,0.801-1.146c1.391-1.138,1.6-0.03,1.6-0.03C65.969,30.671,65.072,31.259,64.201,31.35z"
                id="path27" fill="#c8a461"/>
	</g>
</g>
</svg>